<svg width="13" height="13" viewBox="0 0 13 13" fill="none" xmlns="http://www.w3.org/2000/svg">
<g id="analytic" clip-path="url(#clip0_1_603)">
<path id="Vector" d="M7.10156 6.19922H8.30156C8.60156 6.19922 8.80156 6.39922 8.80156 6.69922V11.7992C8.80156 12.0992 8.60156 12.2992 8.30156 12.2992H7.10156C6.80156 12.2992 6.60156 12.0992 6.60156 11.7992V6.69922C6.60156 6.39922 6.80156 6.19922 7.10156 6.19922Z"/>
<path id="Vector_2" d="M3.80078 8.39844H5.00078C5.30078 8.39844 5.50078 8.59844 5.50078 8.89844V11.7984C5.50078 12.0984 5.30078 12.2984 5.00078 12.2984H3.80078C3.50078 12.2984 3.30078 12.0984 3.30078 11.7984V8.89844C3.30078 8.59844 3.50078 8.39844 3.80078 8.39844Z"/>
<path id="Vector_3" d="M0.5 7.39844H1.7C2 7.39844 2.2 7.59844 2.2 7.89844V11.7984C2.2 12.0984 2 12.2984 1.7 12.2984H0.5C0.2 12.2984 0 12.0984 0 11.7984V7.89844C0 7.69844 0.2 7.39844 0.5 7.39844Z"/>
<path id="Vector_4" d="M10.3984 3.5H11.5984C11.8984 3.5 12.0984 3.7 12.0984 4V11.9C12.0984 12.2 11.8984 12.4 11.5984 12.4H10.3984C10.0984 12.4 9.89844 12.2 9.89844 11.9V4C9.89844 3.7 10.0984 3.5 10.3984 3.5Z"/>
<path id="Vector_5" d="M10.9 0C10.4 0 10 0.4 10 0.9C10 1 10 1.2 10.1 1.3L8.2 2.9C8.1 2.8 7.9 2.8 7.7 2.8C7.2 2.8 6.8 3.2 6.8 3.7C6.8 3.9 6.9 4 6.9 4.1L4.9 5.9C4.8 5.8 4.6 5.7 4.4 5.7C4.1 5.7 3.8 5.9 3.7 6.1L2 5.2V5.1C2 4.6 1.6 4.2 1.1 4.2C0.599997 4.2 0.199997 4.7 0.199997 5.1C0.199997 5.5 0.599997 6 1.1 6C1.4 6 1.6 5.9 1.8 5.7L3.5 6.6C3.5 7.1 3.9 7.5 4.4 7.5C4.9 7.5 5.3 7.1 5.3 6.6C5.3 6.5 5.3 6.4 5.2 6.3L7.3 4.4C7.4 4.5 7.6 4.5 7.7 4.5C8.2 4.5 8.6 4.1 8.6 3.6C8.6 3.5 8.6 3.4 8.5 3.3L10.4 1.6C10.5 1.7 10.7 1.7 10.8 1.7C11.3 1.7 11.7 1.3 11.7 0.8C11.7 0.3 11.3 0 10.9 0ZM1.1 5.7C0.799997 5.7 0.499997 5.4 0.499997 5.1C0.499997 4.8 0.799997 4.5 1.1 4.5C1.4 4.5 1.7 4.8 1.7 5.1C1.7 5.4 1.4 5.7 1.1 5.7ZM4.4 7.2C4.1 7.2 3.8 6.9 3.8 6.6C3.8 6.3 4.1 6 4.4 6C4.7 6 5 6.3 5 6.6C5 6.9 4.7 7.2 4.4 7.2ZM7.7 4.3C7.4 4.3 7.1 4 7.1 3.7C7.1 3.4 7.4 3.1 7.7 3.1C8 3.1 8.3 3.4 8.3 3.7C8.3 4 8 4.3 7.7 4.3ZM10.9 1.5C10.6 1.5 10.3 1.2 10.3 0.9C10.3 0.6 10.6 0.3 10.9 0.3C11.2 0.3 11.5 0.6 11.5 0.9C11.5 1.2 11.2 1.5 10.9 1.5Z"/>
</g>
<defs>
<clipPath id="clip0_1_603">
<rect width="12.1" height="12.4" fill="white"/>
</clipPath>
</defs>
</svg>
