<svg width="21" height="18" viewBox="0 0 21 18" fill="none" xmlns="http://www.w3.org/2000/svg">
<g id="Frame 132111">
<g id="Rectangle 1430">
<mask id="path-1-inside-1_1_738" fill="white">
<rect y="13" width="4" height="5" rx="0.3"/>
</mask>
<rect y="13" width="4" height="5" rx="0.3" stroke="#333333" stroke-width="1.4" mask="url(#path-1-inside-1_1_738)"/>
</g>
<g id="Rectangle 1431">
<mask id="path-2-inside-2_1_738" fill="white">
<rect x="5" y="10" width="4" height="8" rx="0.3"/>
</mask>
<rect x="5" y="10" width="4" height="8" rx="0.3" stroke="#333333" stroke-width="1.4" mask="url(#path-2-inside-2_1_738)"/>
</g>
<g id="Rectangle 1432">
<mask id="path-3-inside-3_1_738" fill="white">
<rect x="10" y="7" width="4" height="11" rx="0.3"/>
</mask>
<rect x="10" y="7" width="4" height="11" rx="0.3" stroke="#333333" stroke-width="1.4" mask="url(#path-3-inside-3_1_738)"/>
</g>
<g id="Rectangle 1433">
<mask id="path-4-inside-4_1_738" fill="white">
<rect x="15" y="5" width="4" height="13" rx="0.3"/>
</mask>
<rect x="15" y="5" width="4" height="13" rx="0.3" stroke="#333333" stroke-width="1.4" mask="url(#path-4-inside-4_1_738)"/>
</g>
<path id="Vector 25" d="M15.35 5V4.2C15.35 3.89624 15.1038 3.65 14.8 3.65H13.845L17 0.494975L20.155 3.65H19.2C18.8962 3.65 18.65 3.89624 18.65 4.2V5V7.15H15.35V5Z" stroke="#333333" stroke-width="0.7" stroke-linejoin="round"/>
<path id="Vector 26" d="M16 8V5H18V8H16Z" fill="#F1F4F8" stroke="#F2F4F8" stroke-width="0.6"/>
</g>
</svg>
