<svg width="33" height="33" viewBox="0 0 33 33" fill="none" xmlns="http://www.w3.org/2000/svg">
<g id="&#209;&#128;&#208;&#181;&#208;&#186;&#208;&#178;&#209;&#150;&#208;&#183;&#208;&#184;&#209;&#130;&#208;&#184;">
<path id="Vector" d="M16.8888 4.90761C18.0975 4.86584 19.2948 5.15497 20.3513 5.7438C21.4078 6.33264 22.2835 7.19882 22.8837 8.24886C23.2799 8.99893 23.487 9.83436 23.487 10.6826C23.487 11.5309 23.2799 12.3663 22.8837 13.1164H23.695C23.8142 13.1145 23.9325 13.1362 24.0433 13.1802C24.1541 13.2241 24.2552 13.2894 24.3408 13.3724C24.4263 13.4554 24.4947 13.5544 24.5419 13.6639C24.5892 13.7733 24.6145 13.8909 24.6162 14.0101C24.6126 14.2521 24.514 14.4829 24.3416 14.6527C24.1692 14.8225 23.937 14.9176 23.695 14.9176H21.4813C20.1653 15.8851 18.739 16.6928 17.2325 17.3239L15.8575 18.0114H23.7775C24.0188 18.0104 24.2509 18.1042 24.4237 18.2726C24.5115 18.352 24.5805 18.45 24.6257 18.5594C24.6709 18.6688 24.6911 18.7869 24.685 18.9051C24.685 19.0236 24.6614 19.141 24.6157 19.2503C24.5699 19.3597 24.5028 19.4588 24.4184 19.542C24.3339 19.6252 24.2338 19.6907 24.1237 19.7348C24.0137 19.7789 23.896 19.8007 23.7775 19.7989H12.9287C12.3708 20.2585 11.9646 20.8758 11.7634 21.5702C11.5622 22.2645 11.5754 23.0034 11.8012 23.6901C12.4062 25.3264 14.3038 26.2889 16.985 26.2889C18.3816 26.3366 19.7517 25.8993 20.8625 25.0514C21.0449 24.8947 21.282 24.8169 21.5218 24.8349C21.7615 24.853 21.9843 24.9654 22.1412 25.1476C22.2209 25.2369 22.2814 25.3415 22.3192 25.4549C22.3571 25.5684 22.3714 25.6884 22.3612 25.8076C22.3359 26.0419 22.2229 26.258 22.045 26.4126C20.6171 27.5367 18.8431 28.1297 17.0262 28.0901H16.7787C13.465 28.0901 10.9763 26.7151 10.0963 24.3089C9.83445 23.5676 9.74421 22.7766 9.83234 21.9954C9.92046 21.2142 10.1846 20.4632 10.605 19.7989H9.23C8.99296 19.7989 8.76563 19.7047 8.59802 19.5371C8.43041 19.3695 8.33625 19.1421 8.33625 18.9051C8.33625 18.6681 8.43041 18.4407 8.59802 18.2731C8.76563 18.1055 8.99296 18.0114 9.23 18.0114H12.2825C13.5772 17.1061 14.9591 16.3322 16.4075 15.7014L18.0437 14.9039H9.27125C9.03421 14.9039 8.80688 14.8097 8.63927 14.6421C8.47166 14.4745 8.3775 14.2471 8.3775 14.0101C8.3775 13.7731 8.47166 13.5457 8.63927 13.3781C8.80688 13.2105 9.03421 13.1164 9.27125 13.1164H20.7525C20.8516 13.0079 20.9435 12.8931 21.0275 12.7726C21.4151 12.2456 21.6443 11.6189 21.6882 10.9662C21.732 10.3134 21.5887 9.66172 21.275 9.08761C20.8283 8.32965 20.1846 7.70692 19.4123 7.28564C18.6399 6.86436 17.7678 6.66028 16.8888 6.69511C15.386 6.58957 13.9026 7.08401 12.7637 8.07011C12.5937 8.23263 12.3664 8.32156 12.1312 8.31761C11.8902 8.31709 11.6587 8.22349 11.485 8.05636C11.401 7.97118 11.3347 7.87023 11.2899 7.75932C11.245 7.64841 11.2226 7.52973 11.2237 7.41011C11.2494 7.2015 11.3525 7.01012 11.5125 6.87386C12.9787 5.54514 14.9124 4.85277 16.8888 4.94886V4.90761ZM16.8888 4.16511C14.7271 4.06745 12.6136 4.82297 11.0038 6.26886C10.8453 6.4238 10.7195 6.60882 10.6336 6.81307C10.5476 7.01731 10.5034 7.23666 10.5034 7.45824C10.5034 7.67982 10.5476 7.89917 10.6336 8.10341C10.7195 8.30765 10.8453 8.49267 11.0038 8.64761C11.329 8.97141 11.7686 9.15417 12.2275 9.15636C12.4466 9.15795 12.6638 9.11626 12.8667 9.03367C13.0697 8.95109 13.2543 8.82924 13.41 8.67511C14.396 7.82779 15.6737 7.3986 16.9713 7.47886C17.7003 7.45393 18.4229 7.62278 19.0655 7.96819C19.708 8.31361 20.2474 8.82324 20.6287 9.44511C20.8806 9.90336 20.9915 10.4258 20.9475 10.9469C20.9035 11.4679 20.7065 11.9644 20.3812 12.3739H9.27125C8.82635 12.3739 8.39967 12.5506 8.08508 12.8652C7.77049 13.1798 7.59375 13.6065 7.59375 14.0514C7.59375 14.4963 7.77049 14.9229 8.08508 15.2375C8.39967 15.5521 8.82635 15.7289 9.27125 15.7289H14.6612C13.741 16.1699 12.8582 16.685 12.0212 17.2689H9.27125C9.05096 17.2689 8.83282 17.3123 8.6293 17.3966C8.42577 17.4809 8.24085 17.6044 8.08508 17.7602C7.92931 17.916 7.80574 18.1009 7.72144 18.3044C7.63714 18.5079 7.59375 18.7261 7.59375 18.9464C7.59375 19.1667 7.63714 19.3848 7.72144 19.5883C7.80574 19.7918 7.92931 19.9768 8.08508 20.1325C8.24085 20.2883 8.42577 20.4119 8.6293 20.4962C8.83282 20.5805 9.05096 20.6239 9.27125 20.6239H9.35375C8.89316 21.9131 8.89316 23.3221 9.35375 24.6114C10.3438 27.3614 13.1212 28.9151 16.7787 28.9151H17.04C19.0317 28.944 20.9731 28.2887 22.54 27.0589C22.7097 26.9147 22.8493 26.7385 22.9508 26.5403C23.0523 26.3421 23.1136 26.1258 23.1312 25.9039C23.1486 25.6837 23.1223 25.4622 23.0539 25.2522C22.9855 25.0422 22.8763 24.8478 22.7325 24.6801C22.5723 24.4944 22.3739 24.3454 22.1508 24.2434C21.9277 24.1413 21.6853 24.0886 21.44 24.0889C21.0388 24.0935 20.651 24.2341 20.34 24.4876C19.3669 25.2186 18.174 25.5968 16.9575 25.5601C14.675 25.5601 13.0112 24.7764 12.53 23.4701C12.3699 22.9753 12.3534 22.4453 12.4824 21.9415C12.6114 21.4377 12.8806 20.9808 13.2588 20.6239H23.7362C24.1837 20.6239 24.6133 20.4481 24.9322 20.1342C25.2512 19.8204 25.434 19.3938 25.4412 18.9464C25.4395 18.7243 25.3939 18.5047 25.3073 18.3002C25.2206 18.0957 25.0945 17.9103 24.9362 17.7545C24.7779 17.5987 24.5904 17.4756 24.3845 17.3923C24.1786 17.309 23.9583 17.267 23.7362 17.2689H19.2537C20.1373 16.8405 20.9757 16.3246 21.7562 15.7289H23.7362C24.1812 15.7726 24.6252 15.6379 24.9707 15.3542C25.3163 15.0706 25.535 14.6613 25.5788 14.2164C25.6225 13.7715 25.4877 13.3274 25.2041 12.9819C24.9204 12.6363 24.5112 12.4176 24.0662 12.3739C24.4944 10.8785 24.3217 9.27505 23.585 7.90511C22.9192 6.72463 21.9435 5.74847 20.7634 5.08206C19.5833 4.41566 18.2435 4.08433 16.8888 4.12386V4.16511Z" fill="#333333"/>
</g>
</svg>
